<?xml version="1.0" encoding="UTF-8"?>
<svg id="Layer_1" xmlns="http://www.w3.org/2000/svg" version="1.1" viewBox="0 0 413.0332031 619.1170654">
  <!-- Generator: Adobe Illustrator 29.7.1, SVG Export Plug-In . SVG Version: 2.1.1 Build 8)  -->
  <defs>
    <style>
      .st0 {
        fill: #fff;
      }
    </style>
  </defs>
  <path class="st0" d="M344.1962891,149.1761475c-43.9277344-18.4649658-38.359375-44.9302979-56.2932129-67.4766846,0,0-9.2312012-12.5080566-28.4528809-14.4368896l31.7661133-55.0587158c-50.5073242-4.3127441-83.8901367,23.0957031-83.8901367,23.0957031l.762207-35.2995605C88.6169434,29.3811035,0,137.2183838,0,265.7553711c0,29.0292969,4.5244141,57.0004883,12.8986816,83.2529297.0004883.0010986.0007324.0021973.0014648.0032959,14.1281738,44.2885742,39.2229004,83.6802979,72.097168,114.9779053,19.0910645,18.175293,40.8046875,33.619751,64.5144043,45.7109375-11.498291-18.8117676-64.1772461-111.6567383-26.402832-191.7797852,39.1513672-83.043457,128.5864258-70.2353516,215.2229004-90.5614014,51.1567383-12.0020752,74.701416-60.612915,74.701416-60.612915,0,0-31.6689453-1.9464111-68.8369141-17.5701904ZM59.3930664,434.8144531c3.7287598,4.8847656,7.4980469,9.4819336,11.2734375,13.8256836-3.7753906-4.3435059-7.5446777-8.9407959-11.2734375-13.8256836ZM269.5756836,128.8469238c-6.4521484,0-11.6828613-5.2303467-11.6828613-11.6824951,0-6.4522705,5.2307129-11.6829834,11.6828613-11.6829834s11.6828613,5.2307129,11.6828613,11.6829834c0,6.4521484-5.2307129,11.6824951-11.6828613,11.6824951Z"/>
  <polygon class="st0" points="190.2512207 404.3327637 190.2512207 340.3201904 215.2624512 340.3201904 215.2624512 325.2253418 148.6037598 325.2253418 148.6037598 340.3201904 173.5048828 340.3201904 173.5048828 404.3327637 190.2512207 404.3327637"/>
  <path class="st0" d="M258.2312012,344.8380127c-4.7026367,0-9.145752,1.0655518-13.3293457,3.1966553-4.1875,2.1312256-7.3842773,5.0683594-9.5861816,8.8116455v-11.3477783h-14.1040039v58.8342285h15.3149414v-28.5344238c0-4.3330078.9162598-7.6594238,2.7563477-9.9714355,1.8322754-2.315918,4.3881836-3.8178711,7.6555176-4.5178223,3.2675781-.6959229,7.0344238-.9003906,11.2927246-.6054688v-15.8656006Z"/>
  <path class="st0" d="M295.467041,369.7943115c-1.5412598-.1101074-3.1574707-.1651611-4.8442383-.1651611-8.5246582,0-15.0593262,1.5059814-19.612793,4.513916-4.5571289,3.0158691-6.829834,7.3842773-6.829834,13.1131592,0,5.508667,1.871582,9.9163818,5.6188965,13.2193604,3.7431641,3.3066406,8.6660156,4.9581299,14.760498,4.9581299,4.0422363,0,7.5297852-.7155762,10.467041-2.1468506,2.9372559-1.4311523,5.3632812-3.5073242,7.2741699-6.2243652v7.2702637h12.4487305v-37.0195312c0-7.1955566-2.1469727-12.8143311-6.4445801-16.8564453-4.2976074-4.0380859-10.3017578-6.059082-18.0124512-6.059082-4.7026367,0-8.8706055.9200439-12.5075684,2.7523193-3.6330566,1.84021-6.5388184,4.4273682-8.701416,7.7696533-2.1704102,3.3421631-3.4013672,7.2897949-3.6921387,11.8430176h13.7697754c.2949219-3.3067627,1.395752-5.8742676,3.3066406-7.7105713,1.9111328-1.8363037,4.5180664-2.7562256,7.824707-2.7562256,3.2282715,0,5.7290039.9199219,7.4904785,2.7562256s2.642334,4.4038086,2.642334,7.7105713v3.5270996c-1.7617188-.2202148-3.4130859-.385376-4.958252-.4954834ZM300.425293,383.729248c0,3.3814697-1.1206055,6.0788574-3.3579102,8.0998535-2.2412109,2.0209961-5.3081055,3.0275879-9.2009277,3.0275879-2.8625488,0-5.123291-.7313232-6.7746582-2.2019043-1.6516113-1.470459-2.4812012-3.4168701-2.4812012-5.8388672,0-2.717041,1.1049805-4.7380371,3.3068848-6.0593262,2.2019043-1.3249512,5.4338379-1.9855957,9.6962891-1.9855957,1.3210449,0,2.6774902.0550537,4.0773926.1651611,1.3918457.1101074,2.9724121.3145752,4.7341309.6055908v4.1875Z"/>
  <rect class="st0" x="329.0695801" y="345.4985352" width="15.3151855" height="58.8342285"/>
  <path class="st0" d="M343.9995117,325.1702881c-1.8718262-1.72229-4.3527832-2.5872803-7.4355469-2.5872803-3.015625,0-5.4536133.8649902-7.3291016,2.5872803-1.871582,1.7261963-2.8076172,3.9516602-2.8076172,6.6685791,0,2.5715332.9360352,4.7185059,2.8076172,6.4445801,1.8754883,1.7260742,4.3134766,2.5871582,7.3291016,2.5871582,3.0827637,0,5.5637207-.861084,7.4355469-2.5871582,1.871582-1.7260742,2.8112793-3.8730469,2.8112793-6.4445801,0-2.7169189-.9396973-4.9423828-2.8112793-6.6685791Z"/>
  <rect class="st0" x="359.1455078" y="325.2253418" width="15.4250488" height="79.1074219"/>
  <polygon class="st0" points="200.9384766 511.1724854 217.6845703 511.1724854 217.6845703 480.982666 246.6594238 480.982666 246.6594238 466.5523682 217.6845703 466.5523682 217.6845703 446.609375 252.0581055 446.609375 252.0581055 432.0649414 200.9384766 432.0649414 200.9384766 511.1724854"/>
  <path class="st0" d="M308.6352539,460.0528564c-2.6816406-2.791748-5.8391113-4.958252-9.4760742-6.50354-3.6333008-1.5412598-7.5849609-2.3120117-11.8432617-2.3120117-4.262207,0-8.2060547.770752-11.8430176,2.3120117-3.6369629,1.5452881-6.7944336,3.711792-9.4760742,6.50354-2.6816406,2.791626-4.7734375,6.0198975-6.2792969,9.6922607-1.5061035,3.6765137-2.2570801,7.6791992-2.2570801,12.012207,0,4.2583008.7509766,8.2453613,2.2570801,11.9532471,1.5058594,3.7078857,3.5976562,6.9595947,6.2792969,9.7513428,2.6816406,2.791626,5.8391113,4.9542236,9.4760742,6.4995117,3.6369629,1.5412598,7.5808105,2.3120117,11.8430176,2.3120117,4.2583008,0,8.2099609-.770752,11.8432617-2.3120117,3.6369629-1.5452881,6.7944336-3.7078857,9.4760742-6.4995117,2.6816406-2.791748,4.7734375-6.043457,6.2792969-9.7513428s2.2607422-7.6949463,2.2607422-11.9532471c0-4.3330078-.7548828-8.3356934-2.2607422-12.012207-1.5058594-3.6723633-3.5976562-6.9006348-6.2792969-9.6922607ZM299.4892578,490.9542236c-1.2856445,2.5361328-2.9921875,4.4627686-5.123291,5.7839355-2.1311035,1.3250732-4.4785156,1.9857178-7.0500488,1.9857178-2.496582,0-4.8283691-.6606445-6.994873-1.9857178-2.1665039-1.321167-3.8967285-3.2478027-5.1784668-5.7839355-1.2856445-2.5321045-1.9306641-5.5991211-1.9306641-9.1968994,0-3.6723633.6450195-6.7590332,1.9306641-9.2558594,1.2817383-2.4968262,3.0119629-4.3880615,5.1784668-5.6738281s4.498291-1.9306641,6.994873-1.9306641c2.5715332,0,4.9189453.6448975,7.0500488,1.9306641s3.8376465,3.177002,5.123291,5.6738281c1.2858887,2.4968262,1.9306641,5.5834961,1.9306641,9.2558594,0,3.5977783-.6447754,6.6647949-1.9306641,9.1968994Z"/>
  <polygon class="st0" points="378.8720703 452.3383789 362.786377 452.3383789 350.6679688 472.6115723 338.659668 452.3383789 321.0288086 452.3383789 339.5405273 481.2028809 319.7075195 511.1724854 336.7841797 511.1724854 349.6772461 490.0184326 362.8964844 511.1724854 380.3032227 511.1724854 360.5844727 481.7573242 378.8720703 452.3383789"/>
  <path class="st0" d="M86.0302734,572.6253662l-13.5537109-2.7563477c-1.9108887-.3656006-3.6723633-.8964844-5.2883301-1.5963135-1.6159668-.6999512-2.9174805-1.6357422-3.9084473-2.8114014-.9946289-1.1717529-1.4902344-2.642334-1.4902344-4.4078369,0-1.9069824.5151367-3.6134033,1.5454102-5.1193848,1.026123-1.5058594,2.4770508-2.717041,4.3486328-3.637085,1.8754883-.9200439,4.1679688-1.3760986,6.888916-1.3760986,2.7878418,0,5.2492676.5661621,7.380127,1.7064209,2.1313477,1.1402588,3.8378906,2.7523193,5.1235352,4.8481445,1.2856445,2.0917969,2.0014648,4.5335693,2.1467285,7.3253174h16.970459c-.2949219-5.5087891-1.8754883-10.2624512-4.7380371-14.2652588-2.8664551-4.0028076-6.6135254-7.1090088-11.2375488-9.3109131-4.6279297-2.2058105-9.9165039-3.3068848-15.8654785-3.3068848-5.7290039,0-10.8168945,1.0302734-15.2600098,3.0866699-4.4470215,2.0563965-7.9348145,4.9189453-10.467041,8.5913086-2.5361328,3.6765137-3.802002,7.8601074-3.802002,12.5627441,0,3.2320557.550293,6.0944824,1.6513672,8.5913086,1.1047363,2.5007324,2.6069336,4.6279297,4.5178223,6.3895264,1.9108887,1.7655029,4.1481934,3.2359619,6.7236328,4.4077148,2.567627,1.1756592,5.3591309,2.0211182,8.3710938,2.5361328l13.0031738,2.5321045c3.3774414.6606445,5.984375,1.7458496,7.8208008,3.2518311,1.8359375,1.5059814,2.7521973,3.5073242,2.7521973,6.0041504,0,2.0563965-.6213379,3.8572998-1.871582,5.3985596-1.2502441,1.5413818-2.9567871,2.717041-5.123291,3.5270996-2.1665039.8059082-4.6831055,1.2109375-7.5454102,1.2109375-5.1430664,0-9.0908203-1.2857666-11.8432617-3.8571777-2.7563477-2.5715332-4.2426758-6.0593262-4.4628906-10.467041h-16.9663086c.4404297,5.5834961,2.0524902,10.4316406,4.8481445,14.5444336,2.7875977,4.112793,6.6252441,7.2897949,11.5126953,9.5311279,4.8835449,2.2412109,10.6320801,3.3579102,17.2416992,3.3579102,6.6806641,0,12.3935547-1.1009521,17.1318359-3.3028564,4.737793-2.2058105,8.390625-5.2333984,10.9621582-9.0908203,2.5715332-3.8571777,3.8574219-8.2807617,3.8574219-13.2781982,0-5.7996826-1.8205566-10.3725586-5.4538574-13.7147217-3.6369629-3.3422852-8.9450684-5.7092285-15.9204102-7.1051025Z"/>
  <path class="st0" d="M167.5598145,567.9974365c-2.5715332-3.1573486-5.7485352-5.5992432-9.5310059-7.3292236-3.7827148-1.722168-7.986084-2.5872803-12.6140137-2.5872803-5.657959,0-10.6870117,1.3054199-15.0947266,3.9123535-4.4077148,2.6068115-7.8601074,6.1888428-10.3569336,10.7420654-2.4968262,4.5533447-3.7431641,9.7670898-3.7431641,15.6455078,0,6.0944824,1.2109375,11.4577637,3.6330566,16.0817871,2.4260254,4.6279297,5.8586426,8.2099609,10.3017578,10.7420654,4.4433594,2.5361328,9.6020508,3.8022461,15.4802246,3.8022461,7.1994629,0,13.2194824-1.8363037,18.067627-5.508667,4.8481445-3.6724854,8.1154785-8.8115234,9.8061523-15.4251709h-15.204834c-.8808594,2.866333-2.4221191,5.1075439-4.6279297,6.7237549-2.2019043,1.6159668-4.9936523,2.4219971-8.3713379,2.4219971-2.9370117,0-5.4377441-.7352295-7.4902344-2.2019043-2.0605469-1.4705811-3.6018066-3.5977783-4.6279297-6.3934326-.6713867-1.8175049-1.1010742-3.9299316-1.3349609-6.2792969h41.767334c.7353516-4.7734375.5505371-9.2363281-.5505371-13.3845215-1.1008301-4.1481934-2.9370117-7.8049316-5.5085449-10.9622803ZM132.0510254,582.6479492c.2663574-1.7172852.6625977-3.2783203,1.1904297-4.6789551,1.0617676-2.8271484,2.5871582-4.9780273,4.572998-6.4484863,1.9816895-1.4666748,4.4038086-2.2019043,7.2700195-2.2019043,3.5979004,0,6.5153809,1.1953125,8.760498,3.5820312,2.2373047,2.3867188,3.4326172,5.6384277,3.578125,9.7473145h-25.3720703Z"/>
  <path class="st0" d="M199.6210938,570.529541v-11.3476562h-14.1040039v58.8342285h15.3149414v-28.5344238c0-4.3330078.9162598-7.6594238,2.7563477-9.9714355,1.8325195-2.315918,4.3881836-3.8179932,7.6557617-4.5178223,3.267334-.6960449,7.0341797-.9003906,11.2924805-.6054688v-15.8656006c-4.7026367,0-9.145752,1.0655518-13.3293457,3.1966553-4.1875,2.1311035-7.3842773,5.0683594-9.5861816,8.8115234Z"/>
  <path class="st0" d="M239.6132812,536.2663574c-3.0158691,0-5.4536133.8649902-7.3291016,2.5871582-1.8718262,1.7261963-2.8076172,3.9516602-2.8076172,6.6687012,0,2.5715332.935791,4.7183838,2.8076172,6.4445801,1.8754883,1.7260742,4.3132324,2.5871582,7.3291016,2.5871582,3.0825195,0,5.5637207-.861084,7.4353027-2.5871582,1.871582-1.7261963,2.8112793-3.8730469,2.8112793-6.4445801,0-2.717041-.9396973-4.9425049-2.8112793-6.6687012-1.871582-1.722168-4.3527832-2.5871582-7.4353027-2.5871582Z"/>
  <rect class="st0" x="232.1188965" y="559.1818848" width="15.3151855" height="58.8342285"/>
  <path class="st0" d="M310.2314453,567.9974365c-2.5712891-3.1573486-5.7485352-5.5992432-9.5310059-7.3292236-3.7824707-1.722168-7.9858398-2.5872803-12.6137695-2.5872803-5.6582031,0-10.6872559,1.3054199-15.0949707,3.9123535-4.4077148,2.6068115-7.8598633,6.1888428-10.3566895,10.7420654-2.4968262,4.5533447-3.7434082,9.7670898-3.7434082,15.6455078,0,6.0944824,1.2111816,11.4577637,3.6333008,16.0817871,2.4260254,4.6279297,5.8586426,8.2099609,10.3017578,10.7420654,4.4431152,2.5361328,9.6018066,3.8022461,15.4802246,3.8022461,7.1994629,0,13.2192383-1.8363037,18.0673828-5.508667,4.8481445-3.6724854,8.1157227-8.8115234,9.8063965-15.4251709h-15.2050781c-.8806152,2.866333-2.421875,5.1075439-4.6279297,6.7237549-2.2016602,1.6159668-4.9936523,2.4219971-8.3710938,2.4219971-2.9372559,0-5.4379883-.7352295-7.4904785-2.2019043-2.0603027-1.4705811-3.6015625-3.5977783-4.6279297-6.3934326-.6713867-1.8175049-1.1008301-3.9299316-1.3347168-6.2792969h41.767334c.7351074-4.7734375.5505371-9.2363281-.5505371-13.3845215-1.1008301-4.1481934-2.9370117-7.8049316-5.5087891-10.9622803ZM274.7229004,582.6479492c.2663574-1.7172852.6623535-3.2783203,1.1904297-4.6789551,1.0615234-2.8271484,2.5871582-4.9780273,4.5727539-6.4484863,1.9816895-1.4666748,4.4038086-2.2019043,7.2702637-2.2019043,3.5976562,0,6.5153809,1.1953125,8.760498,3.5820312,2.2373047,2.3867188,3.4326172,5.6384277,3.578125,9.7473145h-25.3720703Z"/>
  <path class="st0" d="M360.5805664,583.2023926l-11.3476562-2.0957031c-2.642334-.5112305-4.5925293-1.1914062-5.8391113-2.0368652-1.2502441-.8453369-1.871582-2.1507568-1.871582-3.9123535,0-1.9069824.861084-3.3618164,2.5871582-4.3525391,1.7263184-.9909668,3.9831543-1.4863281,6.7749023-1.4863281,3.2321777,0,5.878418.8256836,7.9348145,2.4770508,2.0563965,1.6553955,3.1965332,3.9123535,3.416748,6.7788086h14.6506348c-.3657227-4.1875-1.6711426-7.824707-3.9084473-10.9073486-2.2412109-3.0865479-5.2531738-5.4537354-9.0356445-7.1090088-3.7827148-1.6513672-8.1352539-2.4771729-13.0581055-2.4771729-4.8442383,0-9.0710449.7706299-12.6689453,2.3120117-3.5976562,1.5452881-6.3894043,3.711792-8.3710938,6.50354-1.9855957,2.791748-2.9765625,6.0197754-2.9765625,9.6923828,0,4.5571289,1.5061035,8.2648926,4.5180664,11.1274414,3.0117188,2.8664551,7.1599121,4.7773438,12.4484863,5.7288818l10.5769043,1.9855957c2.8664551.5151367,4.9189453,1.2503662,6.1694336,2.2020264,1.2504883.9553223,1.8754883,2.3513184,1.8754883,4.1875,0,2.0563965-.9946289,3.5820312-2.9765625,4.572876-1.9816895.9908447-4.4824219,1.4862061-7.4902344,1.4862061-3.7473145,0-6.814209-.8964844-9.2009277-2.6972656s-3.6174316-4.2072754-3.6921387-7.2191162h-14.6503906c.5856934,6.5389404,3.2124023,11.6976318,7.8754883,15.4801025,4.6635742,3.7827148,11.1433105,5.6739502,19.4477539,5.6739502,8.3710938,0,14.8156738-1.7969971,19.3334961-5.3985596,4.5178223-3.5979004,6.7749023-8.4459229,6.7749023-14.5405273,0-4.262207-1.4511719-7.7145996-4.348877-10.3568115-2.9057617-2.6462402-7.2189941-4.5178223-12.947998-5.6187744Z"/>
</svg>